<svg xmlns="http://www.w3.org/2000/svg" width="250" height="308.546" viewBox="0 0 250 308.546"><defs><style>.a{fill:#e6a6a6;}.b{fill:#fff;}.c{fill:#707070;font-size:35px;font-family:BerlinSansFB-Reg, Berlin Sans FB;}.d,.e,.g{fill:none;}.d{stroke:#ff5656;stroke-width:5px;}.e{stroke:#707070;stroke-width:3px;}.f{stroke:none;}</style></defs><g transform="translate(-387 -138)"><path class="a" d="M5,0H245c2.761,0,5,1.808,5,4.039V304.507c0,2.23-2.239,4.039-5,4.039H5c-2.761,0-5-1.808-5-4.039V4.039C0,1.808,2.239,0,5,0Z" transform="translate(387 138)"/><rect class="b" width="161" height="254" rx="5" transform="translate(409 157)"/><text class="c" transform="translate(455 352)"><tspan x="-32.599" y="0">ABC</tspan></text><g class="d" transform="translate(415 299)"><circle class="f" cx="40.5" cy="40.5" r="40.5"/><circle class="g" cx="40.5" cy="40.5" r="38"/></g><line class="e" x2="98" transform="translate(432.5 183.5)"/><line class="e" x2="80" transform="translate(432.5 193.5)"/><line class="e" x2="91" transform="translate(432.5 203.5)"/><line class="e" x2="80" transform="translate(432.5 213.5)"/><line class="e" x2="107" transform="translate(432.5 223.5)"/><line class="e" x2="36" transform="translate(432.5 233.5)"/></g></svg>