<svg xmlns="http://www.w3.org/2000/svg" width="250" height="309" viewBox="0 0 250 309"><defs><style>.a{fill:#ceefee;}.b{fill:#fff;}.c{fill:#707070;font-size:35px;font-family:BerlinSansFB-Reg, Berlin Sans FB;}.d{fill:none;stroke:#707070;}</style></defs><g transform="translate(-653 -138)"><path class="a" d="M5,0H245c2.761,0,5,1.811,5,4.045V304.956c0,2.234-2.239,4.044-5,4.044H5c-2.761,0-5-1.811-5-4.044V4.045C0,1.811,2.239,0,5,0Z" transform="translate(653 138)"/><g transform="translate(682 323)"><rect class="b" width="41" height="68" rx="3"/><text class="c" transform="translate(148 46)"><tspan x="-28.48" y="0">GHI</tspan></text><line class="d" x1="51" transform="translate(52.5 34.179)"/></g><g transform="translate(689 252)"><rect class="b" width="41" height="68" rx="3" transform="translate(138 0)"/><text class="c" transform="translate(31 46)"><tspan x="-30.651" y="0">DEF</tspan></text><line class="d" x1="51" transform="translate(74.5 34.881)"/></g><g transform="translate(682 181)"><rect class="b" width="41" height="68" rx="3"/><text class="c" transform="translate(148 46)"><tspan x="-32.599" y="0">ABC</tspan></text><line class="d" x1="51" transform="translate(52.5 34.5)"/></g></g></svg>