<svg xmlns="http://www.w3.org/2000/svg" xmlns:xlink="http://www.w3.org/1999/xlink" width="250" height="309" viewBox="0 0 250 309"><defs><style>.a{fill:none;}.b{fill:#ce9258;}.c{fill:#b5814e;}.d{clip-path:url(#a);}.e{fill:#fff;}</style><clipPath id="a"><rect class="a" width="187" height="69"/></clipPath></defs><g transform="translate(-113 -138)"><path class="b" d="M5,0H245c2.761,0,5,1.811,5,4.045V304.956c0,2.234-2.239,4.044-5,4.044H5c-2.761,0-5-1.811-5-4.044V4.045C0,1.811,2.239,0,5,0Z" transform="translate(113 138)"/><rect class="c" width="250" height="89" transform="translate(113 195)"/><g class="d" transform="translate(145 205)"><g transform="translate(-156 -205)"><rect class="e" width="27" height="69" rx="3" transform="translate(156 205)"/></g><g transform="translate(-124 -205)"><rect class="e" width="27" height="69" rx="3" transform="translate(156 205)"/></g><g transform="translate(-92 -205)"><rect class="e" width="27" height="69" rx="3" transform="translate(156 205)"/></g><g transform="translate(-60 -205)"><rect class="e" width="27" height="69" rx="3" transform="translate(156 205)"/></g><g transform="translate(-28 -205)"><rect class="e" width="27" height="69" rx="3" transform="translate(156 205)"/></g><g transform="translate(4 -205)"><rect class="e" width="27" height="69" rx="3" transform="translate(156 205)"/></g></g></g></svg>